<svg xmlns="http://www.w3.org/2000/svg" xmlns:xlink="http://www.w3.org/1999/xlink" width="500" zoomAndPan="magnify" viewBox="0 0 375 374.999991" height="500" preserveAspectRatio="xMidYMid meet" version="1.0"><rect x="-37.5" width="450" fill="#ffffff" y="-37.499999" height="449.999989" fill-opacity="1"/><rect x="-37.5" width="450" fill="#ffffff" y="-37.499999" height="449.999989" fill-opacity="1"/><rect x="-37.5" width="450" fill="#ffffff" y="-37.499999" height="449.999989" fill-opacity="1"/><path fill="#ebebeb" d="M 378.597656 163.539062 C 378.597656 164.371094 377.917969 165.050781 377.085938 165.050781 C 376.402344 165.050781 375.875 164.597656 375.644531 163.992188 L 287.828125 163.992188 L 252.777344 199.046875 L 196.605469 199.046875 L 173.667969 175.953125 L 173.667969 138.324219 L 132.105469 96.757812 L 132.105469 49.820312 L 84.410156 2.121094 L 4.996094 2.121094 C 4.84375 2.726562 4.238281 3.179688 3.558594 3.179688 C 2.726562 3.179688 2.042969 2.5 2.042969 1.664062 C 2.042969 0.832031 2.726562 0.152344 3.558594 0.152344 C 4.238281 0.152344 4.769531 0.605469 4.996094 1.210938 L 84.714844 1.210938 L 132.863281 49.515625 L 132.863281 96.457031 L 174.421875 138.023438 L 174.421875 175.652344 L 196.90625 198.136719 L 252.398438 198.136719 L 287.449219 163.082031 L 375.644531 163.082031 C 375.796875 162.476562 376.402344 162.023438 377.085938 162.023438 C 377.917969 162.023438 378.597656 162.703125 378.597656 163.539062 Z M 377.085938 222.515625 C 376.402344 222.515625 375.875 222.972656 375.644531 223.578125 L 358.007812 223.578125 L 304.40625 277.179688 L 281.242188 277.179688 L 260.726562 256.664062 L 216.667969 256.664062 L 160.191406 313.144531 L 128.773438 313.144531 L 87.4375 354.480469 L 2.953125 354.480469 C 2.800781 353.875 2.195312 353.421875 1.515625 353.421875 C 0.679688 353.421875 0 354.101562 0 354.9375 C 0 355.769531 0.679688 356.449219 1.515625 356.449219 C 2.195312 356.449219 2.726562 355.996094 2.953125 355.390625 L 87.742188 355.390625 L 129.078125 314.050781 L 160.644531 314.050781 L 217.121094 257.570312 L 260.5 257.570312 L 281.015625 278.089844 L 304.785156 278.089844 L 358.386719 224.484375 L 375.722656 224.484375 C 375.875 225.089844 376.480469 225.546875 377.160156 225.546875 C 377.992188 225.546875 378.675781 224.863281 378.675781 224.03125 C 378.597656 223.199219 377.917969 222.515625 377.085938 222.515625 Z M 377.085938 127.726562 C 376.78125 127.726562 376.554688 127.800781 376.328125 127.953125 L 345.742188 97.214844 L 288.511719 97.214844 L 255.199219 130.527344 L 209.550781 130.527344 L 175.105469 96.078125 L 175.105469 42.625 C 175.710938 42.472656 176.164062 41.867188 176.164062 41.1875 C 176.164062 40.355469 175.484375 39.671875 174.652344 39.671875 C 173.816406 39.671875 173.136719 40.355469 173.136719 41.1875 C 173.136719 41.867188 173.589844 42.398438 174.195312 42.625 L 174.195312 96.382812 L 209.097656 131.285156 L 255.351562 131.285156 L 288.660156 97.972656 L 345.210938 97.972656 L 375.644531 128.40625 C 375.496094 128.632812 375.417969 128.863281 375.417969 129.164062 C 375.417969 129.996094 376.101562 130.679688 376.933594 130.679688 C 377.765625 130.679688 378.445312 129.996094 378.445312 129.164062 C 378.597656 128.40625 377.917969 127.726562 377.085938 127.726562 Z M 350.585938 51.105469 L 319.246094 82.449219 L 267.3125 82.449219 L 205.160156 20.289062 L 140.128906 20.289062 C 139.976562 19.683594 139.371094 19.230469 138.691406 19.230469 C 137.859375 19.230469 137.175781 19.914062 137.175781 20.746094 C 137.175781 21.578125 137.859375 22.257812 138.691406 22.257812 C 139.371094 22.257812 139.902344 21.804688 140.128906 21.199219 L 204.855469 21.199219 L 267.011719 83.359375 L 319.550781 83.359375 L 350.890625 52.015625 L 375.644531 52.015625 C 375.796875 52.621094 376.402344 53.074219 377.085938 53.074219 C 377.917969 53.074219 378.597656 52.394531 378.597656 51.558594 C 378.597656 50.726562 377.917969 50.046875 377.085938 50.046875 C 376.402344 50.046875 375.875 50.5 375.644531 51.105469 Z M 191.078125 65.261719 C 191.53125 65.71875 192.289062 65.792969 192.820312 65.492188 L 227.644531 100.316406 L 252.929688 100.316406 C 253.082031 100.921875 253.6875 101.378906 254.367188 101.378906 C 255.199219 101.378906 255.882812 100.695312 255.882812 99.863281 C 255.882812 99.03125 255.199219 98.347656 254.367188 98.347656 C 253.6875 98.347656 253.15625 98.804688 252.929688 99.410156 L 227.945312 99.410156 L 193.347656 64.808594 C 193.652344 64.28125 193.578125 63.523438 193.121094 63.066406 C 192.515625 62.460938 191.609375 62.460938 191.003906 63.066406 C 190.472656 63.75 190.472656 64.65625 191.078125 65.261719 Z M 316.746094 64.050781 L 296.609375 64.050781 L 262.46875 29.90625 L 236.878906 29.90625 C 236.726562 29.300781 236.121094 28.847656 235.441406 28.847656 C 234.609375 28.847656 233.925781 29.527344 233.925781 30.359375 C 233.925781 31.195312 234.609375 31.875 235.441406 31.875 C 236.121094 31.875 236.652344 31.421875 236.878906 30.816406 L 262.089844 30.816406 L 296.230469 64.960938 L 317.050781 64.960938 L 344.984375 37.023438 L 344.984375 17.035156 C 345.589844 16.882812 346.046875 16.277344 346.046875 15.597656 C 346.046875 14.765625 345.363281 14.082031 344.53125 14.082031 C 343.699219 14.082031 343.015625 14.765625 343.015625 15.597656 C 343.015625 16.277344 343.472656 16.808594 344.078125 17.035156 L 344.078125 36.570312 Z M 109.621094 7.421875 C 110.300781 7.421875 110.832031 6.964844 111.058594 6.359375 L 250.050781 6.359375 L 262.011719 18.324219 L 310.617188 18.324219 L 323.5625 5.375 L 349.980469 5.375 L 363.535156 18.929688 L 363.535156 35.054688 C 362.929688 35.207031 362.472656 35.8125 362.472656 36.492188 C 362.472656 37.324219 363.15625 38.007812 363.988281 38.007812 C 364.820312 38.007812 365.5 37.324219 365.5 36.492188 C 365.5 35.8125 365.046875 35.28125 364.441406 35.054688 L 364.441406 18.550781 L 350.359375 4.617188 L 323.335938 4.617188 L 310.390625 17.566406 L 262.390625 17.566406 L 250.355469 5.527344 L 111.058594 5.527344 C 110.90625 4.921875 110.300781 4.46875 109.621094 4.46875 C 108.789062 4.46875 108.105469 5.148438 108.105469 5.980469 C 108.105469 6.738281 108.789062 7.421875 109.621094 7.421875 Z M 4.996094 27.332031 C 4.84375 26.726562 4.238281 26.273438 3.558594 26.273438 C 2.726562 26.273438 2.042969 26.953125 2.042969 27.785156 C 2.042969 28.621094 2.726562 29.300781 3.558594 29.300781 C 4.238281 29.300781 4.769531 28.847656 4.996094 28.242188 L 57.082031 28.242188 L 86.605469 57.769531 L 86.605469 125.679688 L 120.824219 159.902344 L 156.027344 159.902344 C 156.179688 160.507812 156.785156 160.964844 157.464844 160.964844 C 158.296875 160.964844 158.980469 160.28125 158.980469 159.449219 C 158.980469 158.617188 158.296875 157.933594 157.464844 157.933594 C 156.785156 157.933594 156.253906 158.390625 156.027344 158.996094 L 121.203125 158.996094 L 87.4375 125.226562 L 87.4375 57.390625 L 57.382812 27.332031 Z M 78.808594 24.683594 C 78.203125 24.078125 77.292969 24.078125 76.6875 24.683594 C 76.082031 25.289062 76.082031 26.195312 76.6875 26.800781 C 77.144531 27.257812 77.898438 27.332031 78.429688 27.027344 L 106.289062 54.890625 L 106.289062 110.234375 L 128.320312 132.269531 C 128.015625 132.796875 128.09375 133.554688 128.546875 134.007812 C 129.152344 134.617188 130.058594 134.617188 130.667969 134.007812 C 131.273438 133.402344 131.273438 132.496094 130.667969 131.890625 C 130.210938 131.4375 129.453125 131.359375 128.925781 131.664062 L 107.121094 109.859375 L 107.121094 54.589844 L 79.035156 26.5 C 79.339844 25.894531 79.261719 25.210938 78.808594 24.683594 Z M 1.589844 296.867188 C 2.269531 296.867188 2.800781 296.410156 3.027344 295.804688 L 51.402344 295.804688 L 79.566406 267.566406 L 117.796875 267.566406 L 140.355469 290.128906 L 157.542969 290.128906 L 216.816406 230.84375 L 296.15625 230.84375 C 296.308594 231.449219 296.914062 231.90625 297.59375 231.90625 C 298.425781 231.90625 299.109375 231.222656 299.109375 230.390625 C 299.109375 229.558594 298.425781 228.875 297.59375 228.875 C 296.914062 228.875 296.382812 229.332031 296.15625 229.9375 L 216.589844 229.9375 L 157.3125 289.21875 L 140.734375 289.21875 L 118.175781 266.65625 L 79.261719 266.65625 L 51.023438 294.898438 L 2.953125 294.898438 C 2.800781 294.292969 2.195312 293.835938 1.515625 293.835938 C 0.679688 293.835938 0 294.519531 0 295.351562 C 0.0742188 296.183594 0.757812 296.867188 1.589844 296.867188 Z M 377.085938 186.25 C 376.402344 186.25 375.875 186.703125 375.644531 187.3125 L 344.378906 187.3125 L 318.335938 213.355469 L 259.210938 213.355469 C 259.0625 212.75 258.457031 212.296875 257.773438 212.296875 C 256.941406 212.296875 256.261719 212.976562 256.261719 213.808594 C 256.261719 214.644531 256.941406 215.324219 257.773438 215.324219 C 258.457031 215.324219 258.984375 214.871094 259.210938 214.265625 L 318.792969 214.265625 L 344.757812 188.21875 L 375.722656 188.21875 C 375.875 188.824219 376.480469 189.277344 377.160156 189.277344 C 377.992188 189.277344 378.675781 188.597656 378.675781 187.765625 C 378.597656 186.933594 377.917969 186.25 377.085938 186.25 Z M 281.847656 243.488281 C 281.695312 242.882812 281.089844 242.429688 280.410156 242.429688 C 279.578125 242.429688 278.894531 243.109375 278.894531 243.941406 C 278.894531 244.777344 279.578125 245.457031 280.410156 245.457031 C 281.089844 245.457031 281.621094 245.003906 281.847656 244.398438 L 307.4375 244.398438 L 348.089844 203.738281 C 348.621094 204.042969 349.375 203.96875 349.832031 203.511719 C 350.4375 202.90625 350.4375 202 349.832031 201.394531 C 349.226562 200.789062 348.316406 200.789062 347.710938 201.394531 C 347.257812 201.847656 347.179688 202.605469 347.484375 203.132812 L 307.132812 243.488281 Z M 1.589844 197.304688 C 2.269531 197.304688 2.800781 196.851562 3.027344 196.246094 L 12.792969 196.246094 L 36.867188 220.320312 L 71.390625 220.320312 L 99.628906 248.5625 L 174.574219 248.5625 L 191.382812 231.753906 C 191.609375 231.90625 191.835938 231.980469 192.136719 231.980469 C 192.972656 231.980469 193.652344 231.300781 193.652344 230.464844 C 193.652344 229.632812 192.972656 228.953125 192.136719 228.953125 C 191.304688 228.953125 190.625 229.632812 190.625 230.464844 C 190.625 230.769531 190.699219 230.996094 190.851562 231.222656 L 174.195312 247.804688 L 99.929688 247.804688 L 71.691406 219.5625 L 37.171875 219.5625 L 13.019531 195.488281 L 2.953125 195.488281 C 2.800781 194.882812 2.195312 194.425781 1.515625 194.425781 C 0.679688 194.425781 0 195.109375 0 195.941406 C 0.0742188 196.625 0.757812 197.304688 1.589844 197.304688 Z M 1.589844 275.4375 C 2.269531 275.4375 2.800781 274.984375 3.027344 274.378906 L 36.714844 274.378906 L 61.246094 249.847656 L 71.996094 249.847656 C 72.144531 250.453125 72.753906 250.910156 73.433594 250.910156 C 74.265625 250.910156 74.949219 250.226562 74.949219 249.394531 C 74.949219 248.5625 74.265625 247.878906 73.433594 247.878906 C 72.753906 247.878906 72.222656 248.335938 71.996094 248.941406 L 60.867188 248.941406 L 36.339844 273.46875 L 3.027344 273.46875 C 2.875 272.863281 2.269531 272.410156 1.589844 272.410156 C 0.757812 272.410156 0.0742188 273.09375 0.0742188 273.925781 C 0.0742188 274.757812 0.757812 275.4375 1.589844 275.4375 Z M 1.589844 328.589844 C 2.269531 328.589844 2.800781 328.132812 3.027344 327.527344 L 41.257812 327.527344 L 53.21875 339.492188 L 80.019531 339.492188 L 117.417969 302.089844 L 149.667969 302.089844 C 149.820312 302.695312 150.425781 303.148438 151.105469 303.148438 C 151.9375 303.148438 152.621094 302.46875 152.621094 301.636719 C 152.621094 300.800781 151.9375 300.121094 151.105469 300.121094 C 150.425781 300.121094 149.894531 300.574219 149.667969 301.179688 L 117.113281 301.179688 L 79.640625 338.734375 L 53.597656 338.734375 L 41.5625 326.695312 L 2.953125 326.695312 C 2.800781 326.089844 2.195312 325.636719 1.515625 325.636719 C 0.679688 325.636719 0 326.316406 0 327.148438 C 0.0742188 327.90625 0.757812 328.589844 1.589844 328.589844 Z M 115.523438 286.339844 L 93.648438 286.339844 L 69.496094 310.492188 L 16.125 310.492188 C 15.972656 309.886719 15.367188 309.433594 14.6875 309.433594 C 13.855469 309.433594 13.171875 310.113281 13.171875 310.949219 C 13.171875 311.78125 13.855469 312.460938 14.6875 312.460938 C 15.367188 312.460938 15.898438 312.007812 16.125 311.402344 L 69.875 311.402344 L 93.949219 287.25 L 115.523438 287.25 C 115.675781 287.855469 116.28125 288.308594 116.964844 288.308594 C 117.796875 288.308594 118.476562 287.628906 118.476562 286.796875 C 118.476562 285.964844 117.796875 285.28125 116.964844 285.28125 C 116.28125 285.28125 115.675781 285.734375 115.523438 286.339844 Z M 151.183594 235.234375 L 174.195312 212.21875 L 221.8125 212.21875 C 221.964844 212.824219 222.570312 213.28125 223.253906 213.28125 C 224.085938 213.28125 224.765625 212.597656 224.765625 211.765625 C 224.765625 210.933594 224.085938 210.25 223.253906 210.25 C 222.570312 210.25 221.964844 210.707031 221.8125 211.3125 L 173.894531 211.3125 L 150.878906 234.328125 L 112.722656 234.328125 L 50.644531 172.242188 L 50.644531 126.4375 L 15.066406 90.855469 L 15.066406 42.625 C 15.671875 42.472656 16.125 41.867188 16.125 41.1875 C 16.125 40.355469 15.445312 39.671875 14.609375 39.671875 C 13.777344 39.671875 13.097656 40.355469 13.097656 41.1875 C 13.097656 41.867188 13.550781 42.398438 14.15625 42.625 L 14.15625 91.234375 L 49.738281 126.816406 L 49.738281 172.621094 L 112.269531 235.160156 L 151.183594 235.160156 Z M 29.144531 59.886719 C 29.144531 60.722656 29.828125 61.402344 30.660156 61.402344 C 31.339844 61.402344 31.871094 60.949219 32.097656 60.34375 L 45.421875 60.34375 L 62.457031 77.378906 L 62.457031 156.949219 L 92.664062 187.160156 L 149.667969 187.160156 C 149.820312 187.765625 150.425781 188.21875 151.105469 188.21875 C 151.9375 188.21875 152.621094 187.539062 152.621094 186.703125 C 152.621094 185.871094 151.9375 185.191406 151.105469 185.191406 C 150.425781 185.191406 149.894531 185.644531 149.667969 186.25 L 92.964844 186.25 L 63.214844 156.496094 L 63.214844 77 L 45.726562 59.507812 L 32.097656 59.507812 C 31.949219 58.902344 31.339844 58.449219 30.660156 58.449219 C 29.828125 58.375 29.144531 59.054688 29.144531 59.886719 Z M 67.832031 60.039062 C 68.4375 60.644531 69.34375 60.644531 69.949219 60.039062 C 70.558594 59.433594 70.558594 58.523438 69.949219 57.917969 C 69.496094 57.464844 68.738281 57.390625 68.210938 57.691406 L 53.070312 42.550781 L 33.992188 42.550781 C 33.839844 41.945312 33.234375 41.488281 32.554688 41.488281 C 31.71875 41.488281 31.039062 42.171875 31.039062 43.003906 C 31.039062 43.835938 31.71875 44.519531 32.554688 44.519531 C 33.234375 44.519531 33.765625 44.0625 33.992188 43.457031 L 52.691406 43.457031 L 67.605469 58.375 C 67.300781 58.828125 67.378906 59.585938 67.832031 60.039062 Z M 54.28125 107.285156 C 54.886719 107.890625 55.792969 107.890625 56.398438 107.285156 C 57.003906 106.679688 57.003906 105.769531 56.398438 105.164062 C 55.945312 104.710938 55.1875 104.632812 54.660156 104.9375 L 43.152344 93.429688 L 43.152344 78.058594 C 43.757812 77.90625 44.210938 77.300781 44.210938 76.621094 C 44.210938 75.789062 43.53125 75.183594 42.699219 75.183594 C 41.863281 75.183594 41.257812 75.863281 41.257812 76.695312 C 41.257812 77.378906 41.714844 77.90625 42.320312 78.132812 L 42.320312 93.808594 L 54.054688 105.542969 C 53.75 106.070312 53.824219 106.828125 54.28125 107.285156 Z M 178.285156 196.246094 L 153.90625 171.867188 L 109.773438 171.867188 L 74.71875 136.8125 C 74.871094 136.582031 74.949219 136.355469 74.949219 136.054688 C 74.949219 135.222656 74.265625 134.539062 73.433594 134.539062 C 72.601562 134.539062 71.917969 135.222656 71.917969 136.054688 C 71.917969 136.886719 72.601562 137.566406 73.433594 137.566406 C 73.660156 137.566406 73.964844 137.492188 74.191406 137.339844 L 109.46875 172.621094 L 153.605469 172.621094 L 177.753906 196.773438 C 177.453125 197.304688 177.527344 198.0625 177.980469 198.515625 C 178.585938 199.121094 179.496094 199.121094 180.101562 198.515625 C 180.707031 197.910156 180.707031 197 180.101562 196.394531 C 179.570312 196.015625 178.890625 195.941406 178.285156 196.246094 Z M 164.808594 202.527344 C 165.640625 202.527344 166.324219 201.847656 166.324219 201.015625 C 166.324219 200.183594 165.640625 199.5 164.808594 199.5 C 164.128906 199.5 163.597656 199.953125 163.371094 200.558594 L 137.859375 200.558594 L 129.53125 208.886719 L 108.484375 208.886719 L 95.691406 196.09375 C 95.992188 195.5625 95.917969 194.804688 95.464844 194.351562 C 94.859375 193.746094 93.949219 193.746094 93.34375 194.351562 C 92.738281 194.957031 92.738281 195.867188 93.34375 196.472656 C 93.796875 196.925781 94.554688 197 95.085938 196.699219 L 108.105469 209.722656 L 129.832031 209.722656 L 138.160156 201.394531 L 163.371094 201.394531 C 163.597656 202.074219 164.128906 202.527344 164.808594 202.527344 Z M 120.371094 220.09375 C 120.21875 219.488281 119.613281 219.035156 118.933594 219.035156 C 118.097656 219.035156 117.417969 219.714844 117.417969 220.546875 C 117.417969 221.382812 118.097656 222.0625 118.933594 222.0625 C 119.613281 222.0625 120.144531 221.609375 120.371094 221.003906 L 141.71875 221.003906 L 150.273438 212.445312 C 150.804688 212.75 151.5625 212.675781 152.015625 212.21875 C 152.621094 211.613281 152.621094 210.707031 152.015625 210.101562 C 151.410156 209.496094 150.5 209.496094 149.894531 210.101562 C 149.441406 210.554688 149.363281 211.3125 149.667969 211.839844 L 141.339844 220.167969 L 120.371094 220.167969 Z M 63.289062 206.921875 C 63.289062 206.996094 63.289062 206.996094 63.289062 206.921875 C 63.894531 207.527344 64.804688 207.527344 65.410156 206.921875 C 66.015625 206.3125 66.015625 205.40625 65.410156 204.800781 C 64.953125 204.347656 64.199219 204.269531 63.667969 204.574219 L 40.125 181.027344 L 40.125 128.253906 L 15.972656 104.179688 C 16.277344 103.648438 16.199219 102.890625 15.746094 102.4375 C 15.140625 101.832031 14.234375 101.832031 13.625 102.4375 C 13.019531 103.042969 13.019531 103.953125 13.625 104.558594 C 14.082031 105.011719 14.839844 105.089844 15.367188 104.785156 L 39.214844 128.632812 L 39.214844 181.480469 L 62.984375 205.253906 C 62.757812 205.785156 62.835938 206.464844 63.289062 206.921875 Z M 41.714844 205.328125 C 42.320312 205.9375 43.226562 205.9375 43.832031 205.328125 C 44.4375 204.722656 44.4375 203.816406 43.832031 203.210938 C 43.378906 202.757812 42.621094 202.679688 42.089844 202.984375 L 27.253906 188.144531 L 27.253906 141.277344 L 6.054688 120.230469 L 6.054688 80.785156 C 6.660156 80.632812 7.117188 80.027344 7.117188 79.347656 C 7.117188 78.511719 6.433594 77.832031 5.601562 77.832031 C 4.769531 77.832031 4.089844 78.511719 4.089844 79.347656 C 4.089844 80.027344 4.542969 80.558594 5.148438 80.785156 L 5.148438 120.53125 L 26.269531 141.65625 L 26.269531 188.523438 L 41.335938 203.589844 C 41.109375 204.117188 41.183594 204.800781 41.714844 205.328125 Z M 15.214844 150.515625 C 15.214844 149.683594 14.535156 149 13.703125 149 C 12.871094 149 12.1875 149.683594 12.1875 150.515625 C 12.1875 151.195312 12.644531 151.726562 13.25 151.953125 L 13.25 183.070312 C 12.644531 183.222656 12.1875 183.828125 12.1875 184.507812 C 12.1875 185.34375 12.871094 186.023438 13.703125 186.023438 C 14.535156 186.023438 15.214844 185.34375 15.214844 184.507812 C 15.214844 183.828125 14.761719 183.296875 14.15625 183.070312 L 14.15625 151.953125 C 14.6875 151.800781 15.214844 151.195312 15.214844 150.515625 Z M 1.589844 217.214844 C 2.269531 217.214844 2.800781 216.761719 3.027344 216.15625 L 14.609375 216.15625 L 36.867188 238.417969 L 64.425781 238.417969 C 64.574219 239.023438 65.183594 239.476562 65.863281 239.476562 C 66.695312 239.476562 67.378906 238.792969 67.378906 237.960938 C 67.378906 237.128906 66.695312 236.449219 65.863281 236.449219 C 65.183594 236.449219 64.652344 236.902344 64.425781 237.507812 L 37.09375 237.507812 L 14.914062 215.324219 L 2.953125 215.324219 C 2.800781 214.71875 2.195312 214.265625 1.515625 214.265625 C 0.679688 214.265625 0 214.945312 0 215.777344 C 0.0742188 216.535156 0.757812 217.214844 1.589844 217.214844 Z M 19.304688 260.070312 L 34.144531 260.070312 L 44.4375 249.773438 C 44.96875 250.074219 45.726562 250.074219 46.253906 249.546875 C 46.859375 248.941406 46.859375 248.03125 46.253906 247.425781 C 45.648438 246.820312 44.742188 246.820312 44.136719 247.425781 C 43.679688 247.878906 43.605469 248.5625 43.910156 249.167969 L 33.765625 259.238281 L 19.609375 259.238281 L 9.3125 248.941406 L 9.3125 225.394531 C 9.917969 225.242188 10.371094 224.636719 10.371094 223.957031 C 10.371094 223.121094 9.691406 222.441406 8.859375 222.441406 C 8.023438 222.441406 7.34375 223.121094 7.34375 223.957031 C 7.34375 224.636719 7.796875 225.167969 8.402344 225.394531 L 8.402344 249.242188 Z M 139.597656 258.554688 C 138.992188 257.949219 138.085938 257.949219 137.480469 258.554688 C 136.875 259.160156 136.875 260.070312 137.480469 260.675781 C 137.933594 261.128906 138.691406 261.207031 139.222656 260.902344 L 149.363281 271.046875 L 161.402344 271.046875 C 161.554688 271.652344 162.160156 272.109375 162.839844 272.109375 C 163.671875 272.109375 164.355469 271.425781 164.355469 270.667969 C 164.355469 269.835938 163.671875 269.15625 162.917969 269.15625 C 162.234375 269.15625 161.628906 269.609375 161.476562 270.214844 L 149.820312 270.214844 L 139.902344 260.296875 C 140.128906 259.765625 140.054688 259.085938 139.597656 258.554688 Z M 148.152344 79.347656 C 148.152344 80.179688 148.835938 80.859375 149.667969 80.859375 C 150.5 80.859375 151.183594 80.179688 151.183594 79.347656 C 151.183594 78.664062 150.726562 78.132812 150.121094 77.90625 L 150.121094 46.335938 L 143.082031 39.292969 C 143.382812 38.765625 143.308594 38.007812 142.855469 37.554688 C 142.25 36.949219 141.339844 36.949219 140.734375 37.554688 C 140.128906 38.160156 140.128906 39.066406 140.734375 39.671875 C 141.1875 40.128906 141.945312 40.203125 142.476562 39.898438 L 149.289062 46.714844 L 149.289062 77.984375 C 148.609375 78.132812 148.152344 78.664062 148.152344 79.347656 Z M 180.101562 122.273438 C 179.496094 121.667969 178.585938 121.667969 177.980469 122.273438 C 177.375 122.878906 177.375 123.789062 177.980469 124.394531 C 178.4375 124.847656 179.191406 124.925781 179.722656 124.621094 L 196.984375 141.882812 L 196.984375 157.554688 L 215.984375 176.558594 L 239.605469 176.558594 L 301.757812 114.402344 L 324.320312 114.402344 L 351.570312 141.65625 L 366.789062 141.65625 C 366.941406 142.261719 367.546875 142.714844 368.226562 142.714844 C 369.058594 142.714844 369.742188 142.035156 369.742188 141.203125 C 369.742188 140.371094 369.058594 139.6875 368.226562 139.6875 C 367.546875 139.6875 367.015625 140.140625 366.789062 140.75 L 351.875 140.75 L 324.621094 113.492188 L 301.378906 113.492188 L 239.300781 175.726562 L 216.363281 175.726562 L 197.890625 157.175781 L 197.890625 141.503906 L 180.402344 124.015625 C 180.632812 123.484375 180.554688 122.730469 180.101562 122.273438 Z M 216.0625 143.777344 C 215.457031 143.171875 214.546875 143.171875 213.941406 143.777344 C 213.335938 144.382812 213.335938 145.289062 213.941406 145.894531 C 214.394531 146.351562 215.152344 146.425781 215.683594 146.125 L 228.929688 159.375 L 239.378906 159.375 L 274.203125 124.546875 C 274.730469 124.847656 275.488281 124.773438 275.941406 124.320312 C 276.546875 123.714844 276.546875 122.804688 275.941406 122.199219 C 275.335938 121.59375 274.429688 121.59375 273.824219 122.199219 C 273.371094 122.652344 273.292969 123.410156 273.597656 123.941406 L 239 158.539062 L 229.234375 158.539062 L 216.210938 145.519531 C 216.589844 144.988281 216.515625 144.230469 216.0625 143.777344 Z M 377.085938 152.484375 C 376.402344 152.484375 375.875 152.9375 375.644531 153.542969 L 343.167969 153.542969 L 319.550781 129.84375 L 301.757812 129.84375 L 264.207031 167.398438 C 263.679688 167.097656 262.921875 167.171875 262.390625 167.625 C 261.785156 168.230469 261.785156 169.140625 262.390625 169.746094 C 262.996094 170.351562 263.90625 170.351562 264.511719 169.746094 C 264.964844 169.292969 265.042969 168.535156 264.738281 168.003906 L 302.0625 130.679688 L 319.171875 130.679688 L 342.867188 154.375 L 375.644531 154.375 C 375.796875 154.980469 376.402344 155.4375 377.085938 155.4375 C 377.917969 155.4375 378.597656 154.753906 378.597656 153.921875 C 378.597656 153.089844 377.917969 152.484375 377.085938 152.484375 Z M 365.199219 64.886719 C 365.351562 65.492188 365.957031 65.945312 366.636719 65.945312 C 367.46875 65.945312 368.152344 65.261719 368.152344 64.429688 C 368.152344 63.597656 367.46875 62.917969 366.636719 62.917969 C 365.957031 62.917969 365.425781 63.371094 365.199219 63.976562 L 355.960938 63.976562 L 345.289062 74.652344 C 344.757812 74.347656 344 74.425781 343.546875 74.878906 C 342.941406 75.484375 342.941406 76.394531 343.546875 77 C 344.152344 77.605469 345.0625 77.605469 345.667969 77 C 346.121094 76.542969 346.195312 75.789062 345.894531 75.257812 L 356.339844 64.808594 L 365.199219 64.808594 Z M 369.96875 101.226562 C 370.574219 101.832031 371.480469 101.832031 372.089844 101.226562 C 372.695312 100.621094 372.695312 99.710938 372.089844 99.105469 C 371.632812 98.652344 370.875 98.578125 370.347656 98.878906 L 355.8125 84.34375 L 337.71875 84.34375 C 337.566406 83.738281 336.960938 83.28125 336.28125 83.28125 C 335.445312 83.28125 334.765625 83.964844 334.765625 84.796875 C 334.765625 85.628906 335.445312 86.3125 336.28125 86.3125 C 336.960938 86.3125 337.492188 85.855469 337.71875 85.25 L 355.433594 85.25 L 369.742188 99.5625 C 369.4375 100.015625 369.515625 100.773438 369.96875 101.226562 Z M 241.648438 80.40625 C 242.253906 81.011719 243.164062 81.011719 243.769531 80.40625 C 244.375 79.800781 244.375 78.890625 243.769531 78.285156 C 243.316406 77.832031 242.558594 77.757812 242.027344 78.058594 L 207.882812 43.914062 L 188.882812 43.914062 C 188.730469 43.308594 188.125 42.851562 187.445312 42.851562 C 186.613281 42.851562 185.929688 43.535156 185.929688 44.292969 C 185.929688 45.125 186.613281 45.804688 187.367188 45.804688 C 187.367188 45.804688 187.367188 45.804688 187.445312 45.804688 C 188.125 45.804688 188.65625 45.351562 188.808594 44.746094 L 207.507812 44.746094 L 241.421875 78.664062 C 241.042969 79.195312 241.117188 79.953125 241.648438 80.40625 Z M 377.085938 316.324219 C 376.402344 316.324219 375.875 316.777344 375.644531 317.382812 L 356.113281 317.382812 L 331.359375 342.140625 L 279.5 342.140625 L 257.699219 363.945312 L 193.878906 363.945312 L 173.816406 343.882812 L 117.871094 343.882812 L 94.253906 367.503906 L 2.953125 367.503906 C 2.800781 366.898438 2.195312 366.445312 1.515625 366.445312 C 0.679688 366.445312 0 367.125 0 367.957031 C 0 368.792969 0.679688 369.472656 1.515625 369.472656 C 2.195312 369.472656 2.726562 369.019531 2.953125 368.414062 L 94.554688 368.414062 L 118.175781 344.789062 L 173.515625 344.789062 L 193.578125 364.855469 L 258.152344 364.855469 L 279.957031 343.050781 L 331.8125 343.050781 L 356.570312 318.292969 L 375.796875 318.292969 C 375.949219 318.898438 376.554688 319.351562 377.234375 319.351562 C 378.070312 319.351562 378.75 318.671875 378.75 317.835938 C 378.597656 317.003906 377.917969 316.324219 377.085938 316.324219 Z M 377.085938 301.484375 C 376.402344 301.484375 375.875 301.9375 375.644531 302.542969 L 303.347656 302.542969 L 256.488281 349.410156 L 210.609375 349.410156 L 192.214844 331.011719 L 131.5 331.011719 C 131.347656 330.40625 130.742188 329.953125 130.058594 329.953125 C 129.226562 329.953125 128.546875 330.632812 128.546875 331.464844 C 128.546875 332.296875 129.226562 332.980469 130.058594 332.980469 C 130.742188 332.980469 131.273438 332.527344 131.5 331.917969 L 191.910156 331.917969 L 210.308594 350.316406 L 256.867188 350.316406 L 303.726562 303.453125 L 375.722656 303.453125 C 375.875 304.058594 376.480469 304.511719 377.160156 304.511719 C 377.992188 304.511719 378.675781 303.832031 378.675781 302.996094 C 378.597656 302.164062 377.917969 301.484375 377.085938 301.484375 Z M 377.085938 275.289062 C 376.402344 275.289062 375.875 275.742188 375.644531 276.347656 L 323.710938 276.347656 L 311.144531 288.914062 L 275.109375 288.914062 L 256.261719 270.0625 L 225.828125 270.0625 L 176.847656 319.050781 C 176.316406 318.746094 175.558594 318.820312 175.105469 319.277344 C 174.5 319.882812 174.5 320.789062 175.105469 321.394531 C 175.710938 322 176.617188 322 177.222656 321.394531 C 177.679688 320.941406 177.753906 320.183594 177.453125 319.65625 L 226.207031 270.894531 L 255.957031 270.894531 L 274.808594 289.75 L 311.449219 289.75 L 324.015625 277.179688 L 375.644531 277.179688 C 375.796875 277.785156 376.402344 278.242188 377.085938 278.242188 C 377.917969 278.242188 378.597656 277.558594 378.597656 276.726562 C 378.597656 275.96875 377.917969 275.289062 377.085938 275.289062 Z M 200.011719 316.777344 C 199.40625 316.171875 198.496094 316.171875 197.890625 316.777344 C 197.285156 317.382812 197.285156 318.292969 197.890625 318.898438 C 198.347656 319.351562 199.101562 319.425781 199.632812 319.125 L 214.699219 334.191406 L 227.417969 334.191406 L 262.089844 299.515625 L 278.972656 299.515625 C 279.121094 300.121094 279.726562 300.574219 280.410156 300.574219 C 281.242188 300.574219 281.921875 299.894531 281.921875 299.0625 C 281.921875 298.226562 281.242188 297.546875 280.410156 297.546875 C 279.726562 297.546875 279.199219 298 278.972656 298.605469 L 261.710938 298.605469 L 227.039062 333.28125 L 214.925781 333.28125 L 200.085938 318.441406 C 200.542969 317.988281 200.464844 317.230469 200.011719 316.777344 Z M 256.5625 287.023438 C 256.714844 287.628906 257.320312 288.082031 258 288.082031 C 258.832031 288.082031 259.515625 287.402344 259.515625 286.570312 C 259.515625 285.734375 258.832031 285.054688 258 285.054688 C 257.320312 285.054688 256.789062 285.507812 256.5625 286.113281 L 233.851562 286.113281 L 208.414062 311.554688 C 207.882812 311.25 207.128906 311.328125 206.671875 311.78125 C 206.066406 312.386719 206.066406 313.292969 206.671875 313.902344 C 207.277344 314.507812 208.1875 314.507812 208.792969 313.902344 C 209.246094 313.445312 209.324219 312.6875 209.019531 312.160156 L 234.230469 286.945312 L 256.5625 286.945312 Z M 377.085938 288.007812 C 376.402344 288.007812 375.875 288.460938 375.644531 289.066406 L 330.90625 289.066406 C 330.753906 288.460938 330.148438 288.007812 329.464844 288.007812 C 328.632812 288.007812 327.953125 288.6875 327.953125 289.519531 C 327.953125 290.355469 328.632812 291.035156 329.464844 291.035156 C 330.148438 291.035156 330.675781 290.582031 330.90625 289.976562 L 375.644531 289.976562 C 375.796875 290.582031 376.402344 291.035156 377.085938 291.035156 C 377.917969 291.035156 378.597656 290.355469 378.597656 289.519531 C 378.597656 288.613281 377.917969 288.007812 377.085938 288.007812 Z M 377.085938 367.65625 C 376.402344 367.65625 375.875 368.109375 375.644531 368.714844 L 347.710938 368.714844 L 329.695312 350.695312 L 282.832031 350.695312 L 271.550781 361.976562 C 271.324219 361.824219 271.097656 361.75 270.796875 361.75 C 269.960938 361.75 269.28125 362.433594 269.28125 363.265625 C 269.28125 364.097656 269.960938 364.777344 270.796875 364.777344 C 271.628906 364.777344 272.308594 364.097656 272.308594 363.265625 C 272.308594 362.960938 272.234375 362.734375 272.082031 362.507812 L 283.136719 351.453125 L 329.390625 351.453125 L 347.410156 369.472656 L 375.644531 369.472656 C 375.796875 370.078125 376.402344 370.53125 377.085938 370.53125 C 377.917969 370.53125 378.597656 369.851562 378.597656 369.019531 C 378.597656 368.261719 377.917969 367.65625 377.085938 367.65625 Z M 338.550781 311.476562 C 338.703125 312.082031 339.308594 312.539062 339.988281 312.539062 C 340.820312 312.539062 341.503906 311.855469 341.503906 311.023438 C 341.503906 310.191406 340.820312 309.507812 339.988281 309.507812 C 339.308594 309.507812 338.777344 309.964844 338.550781 310.570312 L 314.023438 310.570312 L 295.476562 329.042969 C 294.945312 328.738281 294.1875 328.816406 293.734375 329.269531 C 293.128906 329.875 293.128906 330.785156 293.734375 331.390625 C 294.339844 331.996094 295.246094 331.996094 295.851562 331.390625 C 296.308594 330.9375 296.382812 330.179688 296.082031 329.648438 L 314.402344 311.402344 L 338.550781 311.402344 Z M 377.085938 334.570312 C 376.402344 334.570312 375.875 335.023438 375.644531 335.628906 L 357.855469 335.628906 L 346.800781 346.683594 C 346.273438 346.378906 345.515625 346.457031 344.984375 346.910156 C 344.378906 347.515625 344.378906 348.425781 344.984375 349.03125 C 345.589844 349.636719 346.5 349.636719 347.105469 349.03125 C 347.558594 348.578125 347.636719 347.820312 347.332031 347.289062 L 358.160156 336.460938 L 375.644531 336.460938 C 375.796875 337.066406 376.402344 337.523438 377.085938 337.523438 C 377.917969 337.523438 378.597656 336.839844 378.597656 336.007812 C 378.597656 335.25 377.917969 334.570312 377.085938 334.570312 Z M 335.296875 364.398438 C 334.613281 364.398438 334.085938 364.855469 333.855469 365.460938 L 292.597656 365.460938 L 285.179688 372.878906 L 242.558594 372.878906 C 242.40625 372.273438 241.800781 371.820312 241.117188 371.820312 C 240.285156 371.820312 239.605469 372.5 239.605469 373.335938 C 239.605469 374.167969 240.285156 374.847656 241.117188 374.847656 C 241.800781 374.847656 242.332031 374.394531 242.558594 373.789062 L 285.480469 373.789062 L 292.902344 366.367188 L 333.855469 366.367188 C 334.007812 366.972656 334.613281 367.429688 335.296875 367.429688 C 336.128906 367.429688 336.808594 366.746094 336.808594 365.914062 C 336.734375 365.082031 336.128906 364.398438 335.296875 364.398438 Z M 275.867188 312.386719 C 276.472656 311.78125 276.472656 310.871094 275.867188 310.265625 C 275.261719 309.660156 274.351562 309.660156 273.746094 310.265625 C 273.292969 310.71875 273.21875 311.476562 273.519531 312.007812 L 248.3125 337.21875 C 247.78125 336.917969 247.023438 336.992188 246.492188 337.445312 C 245.886719 338.050781 245.886719 338.960938 246.492188 339.566406 C 247.101562 340.171875 248.007812 340.171875 248.613281 339.566406 C 249.066406 339.113281 249.144531 338.355469 248.839844 337.824219 L 274.050781 312.613281 C 274.65625 312.917969 275.335938 312.839844 275.867188 312.386719 Z M 370.121094 177.921875 C 370.269531 178.527344 370.875 178.984375 371.558594 178.984375 C 372.390625 178.984375 373.070312 178.300781 373.070312 177.46875 C 373.070312 176.636719 372.390625 175.953125 371.558594 175.953125 C 370.875 175.953125 370.347656 176.410156 370.121094 177.015625 L 306.226562 177.015625 L 283.96875 199.425781 C 283.742188 199.273438 283.511719 199.199219 283.210938 199.199219 C 282.378906 199.199219 281.695312 199.878906 281.695312 200.710938 C 281.695312 201.542969 282.378906 202.226562 283.210938 202.226562 C 284.042969 202.226562 284.726562 201.542969 284.726562 200.710938 C 284.726562 200.410156 284.648438 200.183594 284.496094 199.953125 L 306.605469 177.847656 L 370.121094 177.847656 Z M 377.085938 257.117188 C 376.402344 257.117188 375.875 257.570312 375.644531 258.175781 L 347.410156 258.175781 C 347.257812 257.570312 346.652344 257.117188 345.96875 257.117188 C 345.136719 257.117188 344.457031 257.796875 344.457031 258.632812 C 344.457031 259.464844 345.136719 260.144531 345.96875 260.144531 C 346.652344 260.144531 347.179688 259.691406 347.410156 259.085938 L 375.644531 259.085938 C 375.796875 259.691406 376.402344 260.144531 377.085938 260.144531 C 377.917969 260.144531 378.597656 259.464844 378.597656 258.632812 C 378.597656 257.796875 377.917969 257.117188 377.085938 257.117188 Z M 377.085938 257.117188 " fill-opacity="1" fill-rule="nonzero"/></svg>